<svg xmlns="http://www.w3.org/2000/svg" viewBox="0 0 134.65 42.42"><g style="isolation:isolate" fill="#fff"><path d="M65.49 12.2l-7.17 6.58 7.88 8.83h-4.76l-5.73-6.43-1.53 1.41v5h-3.54V12.2h3.54v6.53l7.12-6.53zM76.77 15.07q4.78 0 4.78 4.08v8.46H78v-9a.77.77 0 0 0-.51-.73 1.8 1.8 0 0 0-.73-.15h-3.47a1.37 1.37 0 0 0-.64.15.78.78 0 0 0-.42.73v9h-3.55V15.07h2.54l.11.26a8 8 0 0 1 2.14-.26zM93.74 15.07q4.79 0 4.79 4.08v4.39a4.16 4.16 0 0 1-.84 2.88c-.74.8-2.06 1.19-4 1.19h-4.9c-1.89 0-3.21-.39-3.94-1.19a4.16 4.16 0 0 1-.84-2.88v-4.39q0-4.08 4.78-4.08zM95 18.61a.77.77 0 0 0-.51-.73 1.83 1.83 0 0 0-.73-.15h-5.09a1.41 1.41 0 0 0-.65.15.78.78 0 0 0-.42.73v5.46a.77.77 0 0 0 .52.73 1.64 1.64 0 0 0 .72.16h5.08a1.18 1.18 0 0 0 .63-.16.77.77 0 0 0 .43-.73zM120.68 15.07l-3.18 12.54h-4.69l-2.29-9-2.29 9h-4.69l-3.18-12.54h3.47l2.33 9.18 2.32-9.18h4.07l2.33 9.18 2.32-9.18zM130 19.88c1.87.06 3.15.44 3.84 1.16a3.27 3.27 0 0 1 .77 2.39q0 4.18-4.61 4.18h-2.38c-1.84 0-3.13-.37-3.87-1.12a3.88 3.88 0 0 1-.91-2.73l3.55-.78v1.09c0 .54.35.8 1.06.8h2.77q1-.15 1-.87v-.49c0-.43-.09-.71-.29-.84a1.92 1.92 0 0 0-.94-.15H127c-1.85 0-3.1-.42-3.76-1.25a4.12 4.12 0 0 1-.67-2.59 3.56 3.56 0 0 1 .75-2.49c.71-.77 2-1.15 3.86-1.15h2.41c2.87 0 4.45 1.08 4.74 3.26l-3.5.51v-.23a.78.78 0 0 0-.5-.73 1.85 1.85 0 0 0-.74-.15H127a1.37 1.37 0 0 0-.64.15.77.77 0 0 0-.43.73v.72c.07.32.33.51.81.55z"/></g><path d="M7.5 21.85a9.47 9.47 0 0 0 2.76 6.08l7.17 7.16A8.77 8.77 0 0 1 0 33.64V21.85zm9.93-14.53l-7.17 7.17a9.46 9.46 0 0 0-2.77 6.36H0V8.78a8.78 8.78 0 0 1 17.43-1.46z" fill="#fff"/><path d="M35.82 2.59a8.77 8.77 0 0 1 0 12.41l-6.2 6.21 6.2 6.2a8.78 8.78 0 0 1-12.41 12.42L11.06 27.48l-.06-.07A8.77 8.77 0 0 1 11 15L23.41 2.59a8.77 8.77 0 0 1 12.41 0zM28 21.21L17.21 10.37l-5.42 5.42a7.66 7.66 0 1 0 10.83 10.84z" fill="#fff"/></svg>